<svg xmlns="http://www.w3.org/2000/svg" viewBox="0 0 600 400" role="img" aria-label="公園遊戲場與野餐插圖">
<defs>
<linearGradient id="s" x1="0" y1="0" x2="0" y2="1"><stop offset="0" stop-color="#a9e0ff"/><stop offset="1" stop-color="#eefaff"/></linearGradient>
<g id="t1"><ellipse cx="0" cy="2" rx="18" ry="6" fill="#000" opacity=".1"/><rect x="-4" y="-18" width="8" height="20" rx="2" fill="#8d5a3b"/><circle cx="0" cy="-38" r="24" fill="#4faf6f"/><circle cx="-9" cy="-44" r="14" fill="#6cc98a"/></g>
<g id="kid"><ellipse cx="0" cy="2" rx="10" ry="3" fill="#000" opacity=".12"/><rect x="-5" y="-14" width="4" height="15" fill="#3b4a5a"/><rect x="1" y="-14" width="4" height="15" fill="#3b4a5a"/><rect x="-8" y="-32" width="16" height="20" rx="6" style="fill:var(--k,#ff5a4d)"/><circle cx="0" cy="-39" r="8" fill="#ffd2ad"/><path d="M-8 -41 Q0 -52 8 -41Z" fill="#4a3226"/></g>
</defs>
<rect width="600" height="400" fill="url(#s)"/>
<circle cx="92" cy="70" r="36" fill="#ffd23f"/><ellipse cx="400" cy="70" rx="54" ry="17" fill="#fff"/><ellipse cx="440" cy="58" rx="34" ry="15" fill="#fff"/>
<path d="M0 250 Q150 190 300 240 T600 230 V400 H0Z" fill="#a8e2bc"/>
<path d="M0 290 Q200 250 400 295 T600 290 V400 H0Z" fill="#7bd196"/>
<ellipse cx="300" cy="350" rx="250" ry="42" fill="#69c487"/>
<use href="#t1" x="50" y="270"/><use href="#t1" x="560" y="262"/><use href="#t1" x="520" y="296"/>
<!-- 溜滑梯 -->
<g transform="translate(330 330)">
<rect x="-8" y="-120" width="10" height="120" fill="#ff5a4d"/><rect x="58" y="-120" width="10" height="120" fill="#ff5a4d"/>
<rect x="-12" y="-132" width="84" height="16" rx="6" fill="#ffd23f"/>
<path d="M6 -120 L-40 -4" stroke="#8d5a3b" stroke-width="5"/><path d="M-30 -4 L-8 -100" stroke="#8d5a3b" stroke-width="0"/>
<path d="M66 -110 Q110 -90 126 -6" fill="none" stroke="#4d96ff" stroke-width="26" stroke-linecap="round"/><path d="M66 -110 Q110 -90 126 -6" fill="none" stroke="#8fc2ff" stroke-width="8" stroke-linecap="round"/>
<path d="M-12 -132 L28 -170 L72 -132Z" fill="#4db6c6"/>
</g>
<!-- 鞦韆 -->
<g transform="translate(110 330)"><path d="M0 0 L40 -110 L80 0" fill="none" stroke="#e98c3a" stroke-width="7" stroke-linejoin="round"/><line x1="40" y1="-110" x2="40" y2="-110" stroke="#e98c3a"/><line x1="26" y1="-70" x2="26" y2="-28" stroke="#555" stroke-width="2"/><line x1="54" y1="-70" x2="54" y2="-28" stroke="#555" stroke-width="2"/><rect x="18" y="-30" width="44" height="7" rx="3" fill="#ff7aa2"/></g>
<!-- 野餐 -->
<g transform="translate(230 372)"><polygon points="-70,0 70,0 90,24 -90,24" fill="#ff7a8a"/><g fill="#fff" opacity=".7"><rect x="-50" y="2" width="14" height="20"/><rect x="-10" y="2" width="14" height="20"/><rect x="30" y="2" width="14" height="20"/></g><rect x="-30" y="-20" width="36" height="22" rx="4" fill="#c9822b"/><path d="M-30 -20 Q-12 -40 6 -20" fill="none" stroke="#8d5a3b" stroke-width="4"/></g>
<use href="#kid" x="170" y="352" style="--k:#4d96ff"/><use href="#kid" x="460" y="352" style="--k:#ff7aa2"/><use href="#kid" x="496" y="356" style="--k:#ffd23f"/>
<g stroke="#ff9f43" stroke-width="3" fill="none"><path d="M520 150 q10 -20 20 0"/></g>
<g transform="translate(520 140)"><ellipse cx="0" cy="0" rx="16" ry="19" fill="#ff7aa2"/><path d="M-4 19 L0 30 L4 19Z" fill="#ff7aa2"/><line x1="0" y1="30" x2="0" y2="56" stroke="#6b4f3a" stroke-width="2"/></g>
</svg>
